<svg aria-hidden="true" style="position:absolute;width:0;height:0" xmlns="http://www.w3.org/2000/svg" overflow="hidden"><defs><symbol id="warning" viewBox="0 0 20 20"><path d="M19.511 17.98L10.604 1.348a.697.697 0 00-1.208 0L.49 17.98a.675.675 0 00.005.68c.125.211.352.34.598.34h17.814a.694.694 0 00.598-.34.677.677 0 00.006-.68zM11 17H9v-2h2v2zm0-3.5H9V7h2v6.5z"/></symbol><symbol id="chevron-down" viewBox="0 0 20 20"><path d="M4.516 7.548c.436-.446 1.043-.481 1.576 0L10 11.295l3.908-3.747c.533-.481 1.141-.446 1.574 0 .436.445.408 1.197 0 1.615-.406.418-4.695 4.502-4.695 4.502a1.095 1.095 0 01-1.576 0S4.924 9.581 4.516 9.163s-.436-1.17 0-1.615z"/></symbol><symbol id="chevron-left" viewBox="0 0 20 20"><path d="M12.452 4.516c.446.436.481 1.043 0 1.576L8.705 10l3.747 3.908c.481.533.446 1.141 0 1.574-.445.436-1.197.408-1.615 0-.418-.406-4.502-4.695-4.502-4.695a1.095 1.095 0 010-1.576s4.084-4.287 4.502-4.695 1.17-.436 1.615 0z"/></symbol><symbol id="chevron-right" viewBox="0 0 20 20"><path d="M9.163 4.516c.418.408 4.502 4.695 4.502 4.695a1.095 1.095 0 010 1.576s-4.084 4.289-4.502 4.695c-.418.408-1.17.436-1.615 0-.446-.434-.481-1.041 0-1.574L11.295 10 7.548 6.092c-.481-.533-.446-1.141 0-1.576s1.197-.409 1.615 0z"/></symbol><symbol id="chevron-small-down" viewBox="0 0 20 20"><path d="M13.418 7.859c.271-.268.709-.268.978 0s.272.701 0 .969l-3.908 3.83a.697.697 0 01-.979 0l-3.908-3.83c-.27-.267-.27-.701 0-.969s.709-.268.978 0L10 11l3.418-3.141z"/></symbol><symbol id="chevron-small-left" viewBox="0 0 20 20"><path d="M12.141 13.418c.268.271.268.709 0 .978s-.701.272-.969 0l-3.83-3.908a.697.697 0 010-.979l3.83-3.908c.267-.27.701-.27.969 0s.268.709 0 .978L9 10l3.141 3.418z"/></symbol><symbol id="chevron-small-right" viewBox="0 0 20 20"><path d="M11 10L7.859 6.58a.695.695 0 010-.978.68.68 0 01.969 0l3.83 3.908a.697.697 0 010 .979l-3.83 3.908c-.267.272-.701.27-.969 0s-.268-.707 0-.978L11 10z"/></symbol><symbol id="chevron-small-up" viewBox="0 0 20 20"><path d="M6.582 12.141c-.271.268-.709.268-.978 0s-.272-.701 0-.969l3.908-3.83a.697.697 0 01.979 0l3.908 3.83c.27.267.27.701 0 .969s-.709.268-.979 0L10 9l-3.418 3.141z"/></symbol><symbol id="chevron-thin-down" viewBox="0 0 20 20"><path d="M17.418 6.109c.272-.268.709-.268.979 0s.271.701 0 .969l-7.908 7.83a.697.697 0 01-.979 0l-7.908-7.83c-.27-.268-.27-.701 0-.969s.709-.268.979 0L10 13.25l7.418-7.141z"/></symbol><symbol id="chevron-thin-left" viewBox="0 0 20 20"><path d="M13.891 17.418c.268.272.268.709 0 .979s-.701.271-.969 0l-7.83-7.908a.697.697 0 010-.979l7.83-7.908c.268-.27.701-.27.969 0s.268.709 0 .979L6.75 10l7.141 7.418z"/></symbol><symbol id="chevron-thin-right" viewBox="0 0 20 20"><path d="M13.25 10L6.109 2.58a.697.697 0 010-.979.68.68 0 01.969 0l7.83 7.908a.697.697 0 010 .979l-7.83 7.908c-.268.271-.701.27-.969 0s-.268-.707 0-.979L13.25 10z"/></symbol><symbol id="chevron-thin-up" viewBox="0 0 20 20"><path d="M2.582 13.891c-.272.268-.709.268-.979 0s-.271-.701 0-.969l7.908-7.83a.697.697 0 01.979 0l7.908 7.83c.27.268.27.701 0 .969s-.709.268-.978 0L10 6.75l-7.418 7.141z"/></symbol><symbol id="chevron-up" viewBox="0 0 20 20"><path d="M15.484 12.452c-.436.446-1.043.481-1.576 0L10 8.705l-3.908 3.747c-.533.481-1.141.446-1.574 0-.436-.445-.408-1.197 0-1.615.406-.418 4.695-4.502 4.695-4.502a1.095 1.095 0 011.576 0s4.287 4.084 4.695 4.502.436 1.17 0 1.615z"/></symbol><symbol id="controller-fast-forward" viewBox="0 0 20 20"><path d="M9.244 9.52L2.041 4.571C1.469 4.188 1 4.469 1 5.196v9.609c0 .725.469 1.006 1.041.625l7.203-4.951s.279-.199.279-.478-.279-.481-.279-.481zm9.356.481c0 .279-.279.478-.279.478l-7.203 4.951c-.572.381-1.041.1-1.041-.625V5.196c0-.727.469-1.008 1.041-.625L18.32 9.52s.28.201.28.481z"/></symbol><symbol id="controller-jump-to-start" viewBox="0 0 20 20"><path d="M14.959 4.571L7.756 9.52s-.279.201-.279.481.279.479.279.479l7.203 4.951c.572.38 1.041.099 1.041-.626V5.196c0-.727-.469-1.008-1.041-.625zM6 4H5c-.553 0-1 .048-1 .6v10.8c0 .552.447.6 1 .6h1c.553 0 1-.048 1-.6V4.6c0-.552-.447-.6-1-.6z"/></symbol><symbol id="controller-next" viewBox="0 0 20 20"><path d="M12.244 9.52L5.041 4.571C4.469 4.188 4 4.469 4 5.196v9.609c0 .725.469 1.006 1.041.625l7.203-4.951s.279-.199.279-.478-.279-.481-.279-.481zM14 4h1c.553 0 1 .048 1 .6v10.8c0 .552-.447.6-1 .6h-1c-.553 0-1-.048-1-.6V4.6c0-.552.447-.6 1-.6z"/></symbol><symbol id="controller-paus" viewBox="0 0 20 20"><path d="M15 3h-2c-.553 0-1 .048-1 .6v12.8c0 .552.447.6 1 .6h2c.553 0 1-.048 1-.6V3.6c0-.552-.447-.6-1-.6zM7 3H5c-.553 0-1 .048-1 .6v12.8c0 .552.447.6 1 .6h2c.553 0 1-.048 1-.6V3.6c0-.552-.447-.6-1-.6z"/></symbol><symbol id="controller-play" viewBox="0 0 20 20"><path d="M15 10.001c0 .299-.305.514-.305.514l-8.561 5.303C5.51 16.227 5 15.924 5 15.149V4.852c0-.777.51-1.078 1.135-.67l8.561 5.305c-.001 0 .304.215.304.514z"/></symbol><symbol id="controller-record" viewBox="0 0 20 20"><path d="M10 3a7 7 0 10.001 13.999A7 7 0 0010 3z"/></symbol><symbol id="controller-stop" viewBox="0 0 20 20"><path d="M16 4.995v9.808c0 .661-.536 1.197-1.196 1.197H4.997A.997.997 0 014 15.003V5.196C4 4.536 4.536 4 5.196 4h9.808c.55 0 .996.446.996.995z"/></symbol><symbol id="dots-three-horizontal" viewBox="0 0 20 20"><path d="M10.001 7.8a2.2 2.2 0 100 4.402A2.2 2.2 0 0010 7.8zm-7 0a2.2 2.2 0 100 4.402A2.2 2.2 0 003 7.8zm14 0a2.2 2.2 0 100 4.402A2.2 2.2 0 0017 7.8z"/></symbol><symbol id="dots-three-vertical" viewBox="0 0 20 20"><path d="M10.001 7.8a2.2 2.2 0 100 4.402A2.2 2.2 0 0010 7.8zm0-2.6A2.2 2.2 0 109.999.8a2.2 2.2 0 00.002 4.4zm0 9.6a2.2 2.2 0 100 4.402 2.2 2.2 0 000-4.402z"/></symbol><symbol id="add-user" viewBox="0 0 20 20"><path d="M15.989 19.129C16 17 13.803 15.74 11.672 14.822c-2.123-.914-2.801-1.684-2.801-3.334 0-.989.648-.667.932-2.481.12-.752.692-.012.802-1.729 0-.684-.313-.854-.313-.854s.159-1.013.221-1.793c.064-.817-.398-2.56-2.301-3.095-.332-.341-.557-.882.467-1.424-2.24-.104-2.761 1.068-3.954 1.93-1.015.756-1.289 1.953-1.24 2.59.065.78.223 1.793.223 1.793s-.314.17-.314.854c.11 1.718.684.977.803 1.729.284 1.814.933 1.492.933 2.481 0 1.65-.212 2.21-2.336 3.124C.663 15.53 0 17 .011 19.129.014 19.766 0 20 0 20h16s-.014-.234-.011-.871zM17 10V7h-2v3h-3v2h3v3h2v-3h3v-2h-3z"/></symbol><symbol id="beamed-note" viewBox="0 0 20 20"><path d="M17 1l-.002 13c0 1.243-1.301 3-3.748 3-1.243 0-2.25-.653-2.25-1.875 0-1.589 1.445-2.55 3-2.55.432 0 .754.059 1 .123V5.364L8 6.637V16h-.002c0 1.243-1.301 3-3.748 3C3.007 19 2 18.347 2 17.125c0-1.589 1.445-2.55 3-2.55.432 0 .754.059 1 .123V3l11-2z"/></symbol><symbol id="bell" viewBox="0 0 20 20"><path d="M14.65 8.512c-2.28-4.907-3.466-6.771-7.191-6.693-1.327.027-1.009-.962-2.021-.587-1.01.375-.143.924-1.177 1.773-2.902 2.383-2.635 4.587-1.289 9.84.567 2.213-1.367 2.321-.602 4.465.559 1.564 4.679 2.219 9.025.607s7.086-4.814 6.527-6.378c-.765-2.145-2.311-.961-3.272-3.027zm-3.726 8.083c-3.882 1.44-7.072.594-7.207.217-.232-.65 1.253-2.816 5.691-4.463s6.915-1.036 7.174-.311c.153.429-1.775 3.116-5.658 4.557zm-1.248-3.494c-2.029.753-3.439 1.614-4.353 2.389.643.584 1.847.726 3.046.281 1.527-.565 2.466-1.866 2.095-2.904l-.016-.036c-.251.082-.508.171-.772.27z"/></symbol><symbol id="block" viewBox="0 0 20 20"><path d="M10 .4C4.697.4.399 4.698.399 10A9.6 9.6 0 0010 19.601c5.301 0 9.6-4.298 9.6-9.601S15.301.4 10 .4zM2.399 10a7.6 7.6 0 0112.417-5.877L4.122 14.817A7.568 7.568 0 012.399 10zm7.6 7.599a7.56 7.56 0 01-4.815-1.722L15.878 5.184a7.6 7.6 0 01-5.879 12.415z"/></symbol><symbol id="calendar" viewBox="0 0 20 20"><path d="M17 3h-1v2h-3V3H7v2H4V3H3c-1.101 0-2 .9-2 2v12c0 1.1.899 2 2 2h14c1.1 0 2-.9 2-2V5c0-1.1-.9-2-2-2zm0 14H3V9h14v8zM6.5 1h-2v3.5h2V1zm9 0h-2v3.5h2V1z"/></symbol><symbol id="camera" viewBox="0 0 20 20"><path d="M10 8a3 3 0 100 6 3 3 0 000-6zm8-3h-2.4a.888.888 0 01-.789-.57l-.621-1.861A.89.89 0 0013.4 2H6.6c-.33 0-.686.256-.789.568L5.189 4.43A.889.889 0 014.4 5H2C.9 5 0 5.9 0 7v9c0 1.1.9 2 2 2h16c1.1 0 2-.9 2-2V7c0-1.1-.9-2-2-2zm-8 11a5 5 0 01-5-5 5 5 0 1110 0 5 5 0 01-5 5zm7.5-7.8a.7.7 0 110-1.4.7.7 0 010 1.4z"/></symbol><symbol id="ccw" viewBox="0 0 20 20"><path d="M.685 10h2.372v-.205c.108-4.434 3.724-7.996 8.169-7.996 4.515 0 8.174 3.672 8.174 8.201s-3.659 8.199-8.174 8.199a8.13 8.13 0 01-5.033-1.738l1.406-1.504a6.099 6.099 0 003.627 1.193c3.386 0 6.131-2.754 6.131-6.15s-2.745-6.15-6.131-6.15c-3.317 0-6.018 2.643-6.125 5.945V10h2.672l-3.494 3.894L.685 10z"/></symbol><symbol id="chat" viewBox="0 0 20 20"><path d="M5.8 12.2V6H2C.9 6 0 6.9 0 8v6c0 1.1.9 2 2 2h1v3l3-3h5c1.1 0 2-.9 2-2v-1.82a.943.943 0 01-.2.021l-7-.001zM18 1H9c-1.1 0-2 .9-2 2v8h7l3 3v-3h1c1.1 0 2-.899 2-2V3c0-1.1-.9-2-2-2z"/></symbol><symbol id="check" viewBox="0 0 20 20"><path d="M8.294 16.998c-.435 0-.847-.203-1.111-.553L3.61 11.724a1.392 1.392 0 01.27-1.951 1.392 1.392 0 011.953.27l2.351 3.104 5.911-9.492c.407-.652 1.267-.852 1.921-.445s.854 1.266.446 1.92L9.478 16.34a1.39 1.39 0 01-1.12.656c-.022.002-.042.002-.064.002z"/></symbol><symbol id="cog" viewBox="0 0 20 20"><path d="M16.783 10c0-1.049.646-1.875 1.617-2.443a8.932 8.932 0 00-.692-1.672c-1.089.285-1.97-.141-2.711-.883-.741-.74-.968-1.621-.683-2.711a8.732 8.732 0 00-1.672-.691c-.568.97-1.595 1.615-2.642 1.615-1.048 0-2.074-.645-2.643-1.615a8.697 8.697 0 00-1.671.691c.285 1.09.059 1.971-.684 2.711-.74.742-1.621 1.168-2.711.883A8.797 8.797 0 001.6 7.557c.97.568 1.615 1.394 1.615 2.443 0 1.047-.645 2.074-1.615 2.643a8.89 8.89 0 00.691 1.672c1.09-.285 1.971-.059 2.711.682s.969 1.623.684 2.711a8.841 8.841 0 001.672.693c.568-.973 1.595-1.617 2.643-1.617 1.047 0 2.074.645 2.643 1.617a8.963 8.963 0 001.672-.693c-.285-1.088-.059-1.969.683-2.711.741-.74 1.622-1.166 2.711-.883a8.811 8.811 0 00.692-1.672c-.973-.569-1.619-1.395-1.619-2.442zM10 13.652a3.652 3.652 0 110-7.306 3.654 3.654 0 010 7.306z"/></symbol><symbol id="credit-card" viewBox="0 0 20 20"><path d="M18 3H2C.899 3 0 3.9 0 5v10c0 1.1.899 2 2 2h16c1.1 0 2-.9 2-2V5c0-1.1-.9-2-2-2zm0 12H2V9h16v6zm0-9H2V5h16v1zM4 11.1v.6h.6v-.6H4zm3.6 1.199v.601h1.2v-.601h.6v-.6h.6v-.6H8.8v.6h-.601v.6H7.6zm2.4.601v-.601h-.601v.601H10zm-3 0v-.601H5.8v.601H7zm.6-1.201h.6v-.6H7v1.199h.6v-.599zm-2.401.6H5.8v-.6h.6v-.6H5.2v.6h-.6v.6H4v.601h1.199v-.601z"/></symbol><symbol id="credit" viewBox="0 0 20 20"><path d="M11 16.755V19H9v-2.143c-1.712-.1-3.066-.589-4.241-1.797l1.718-1.74c.859.87 2.023 1.16 3.282 1.16 1.565 0 2.405-.599 2.405-1.702 0-.483-.133-.889-.42-1.16-.267-.251-.572-.387-1.202-.483L8.9 10.903c-1.164-.174-2.022-.541-2.634-1.141-.648-.657-.973-1.546-.973-2.707 0-2.155 1.382-3.743 3.707-4.1V1h2v1.932c1.382.145 2.465.62 3.415 1.551l-1.679 1.682c-.859-.832-1.889-.947-2.787-.947-1.412 0-2.099.792-2.099 1.74 0 .348.115.716.401.986.267.252.706.464 1.26.541l1.602.232c1.241.174 2.023.522 2.596 1.063.726.696 1.05 1.702 1.05 2.92 0 2.25-1.567 3.662-3.759 4.055z"/></symbol><symbol id="cross" viewBox="0 0 20 20"><path d="M14.348 14.849a1.2 1.2 0 01-1.697 0L10 11.819l-2.651 3.029a1.2 1.2 0 11-1.697-1.697l2.758-3.15-2.759-3.152a1.2 1.2 0 111.697-1.697L10 8.183l2.651-3.031a1.2 1.2 0 111.697 1.697l-2.758 3.152 2.758 3.15a1.2 1.2 0 010 1.698z"/></symbol><symbol id="cw" viewBox="0 0 20 20"><path d="M19.315 10h-2.372v-.205c-.108-4.434-3.724-7.996-8.169-7.996C4.259 1.799.6 5.471.6 10s3.659 8.199 8.174 8.199a8.13 8.13 0 005.033-1.738l-1.406-1.504a6.099 6.099 0 01-3.627 1.193c-3.386 0-6.131-2.754-6.131-6.15s2.745-6.15 6.131-6.15c3.317 0 6.018 2.643 6.125 5.945V10h-2.672l3.494 3.894L19.315 10z"/></symbol><symbol id="cycle" viewBox="0 0 20 20"><path d="M5.516 14.224c-2.262-2.432-2.222-6.244.128-8.611a6.074 6.074 0 013.414-1.736L8.989 1.8a8.112 8.112 0 00-4.797 2.351c-3.149 3.17-3.187 8.289-.123 11.531l-1.741 1.752 5.51.301-.015-5.834-2.307 2.323zm6.647-11.959l.015 5.834 2.307-2.322c2.262 2.434 2.222 6.246-.128 8.611a6.07 6.07 0 01-3.414 1.736l.069 2.076a8.122 8.122 0 004.798-2.35c3.148-3.172 3.186-8.291.122-11.531l1.741-1.754-5.51-.3z"/></symbol><symbol id="export" viewBox="0 0 20 20"><path d="M15 15H2V6h2.595s.689-.896 2.17-2H1a1 1 0 00-1 1v11a1 1 0 001 1h15a1 1 0 001-1v-3.746l-2 1.645V15zm-1.639-6.95v3.551L20 6.4l-6.639-4.999v3.131C5.3 4.532 5.3 12.5 5.3 12.5c2.282-3.748 3.686-4.45 8.061-4.45z"/></symbol><symbol id="globe" viewBox="0 0 20 20"><path d="M10 .4C4.705.4.399 4.707.399 10S4.705 19.6 10 19.6c5.293 0 9.6-4.307 9.6-9.6S15.293.4 10 .4zm8.188 9.6c0 1.873-.636 3.6-1.696 4.98-.3-.234-.619-.867-.319-1.523.303-.66.382-2.188.312-2.783-.066-.594-.375-2.025-1.214-2.039-.838-.012-1.413-.289-1.911-1.283-1.033-2.068 1.939-2.465.906-3.609-.289-.322-1.783 1.322-2.002-.869-.014-.157.135-.392.336-.636 3.244 1.09 5.588 4.157 5.588 7.762zM8.875 1.893c-.196.382-.713.537-1.027.824-.684.619-.978.533-1.346 1.127-.371.594-1.567 1.449-1.567 1.879s.604.936.906.838c.302-.1 1.099-.094 1.567.07.469.166 3.914.332 2.816 3.244-.348.926-1.873.77-2.279 2.303-.061.225-.272 1.186-.285 1.5-.025.486.344 2.318-.125 2.318-.471 0-1.738-1.639-1.738-1.936s-.328-1.338-.328-2.23c0-.891-1.518-.877-1.518-2.062 0-1.068.823-1.6.638-2.113-.181-.51-1.627-.527-2.23-.59a8.213 8.213 0 016.516-5.172zM7.424 17.77c.492-.26.542-.596.988-.613.51-.023.925-.199 1.5-.326.51-.111 1.423-.629 2.226-.695.678-.055 2.015.035 2.375.689a8.159 8.159 0 01-7.089.945z"/></symbol><symbol id="heart-outlined" viewBox="0 0 20 20"><path d="M17.19 4.156c-1.672-1.535-4.383-1.535-6.055 0L10 5.197 8.864 4.156c-1.672-1.535-4.382-1.535-6.054 0-1.881 1.726-1.881 4.519 0 6.245L10 17l7.19-6.599c1.88-1.726 1.88-4.52 0-6.245zm-1.066 5.219L10 15.09 3.875 9.375c-.617-.567-.856-1.307-.856-2.094s.138-1.433.756-1.999c.545-.501 1.278-.777 2.063-.777s1.517.476 2.062.978L10 7.308l2.099-1.826c.546-.502 1.278-.978 2.063-.978s1.518.276 2.063.777c.618.566.755 1.212.755 1.999s-.238 1.528-.856 2.095z"/></symbol><symbol id="heart" viewBox="0 0 20 20"><path d="M17.19 4.155c-1.672-1.534-4.383-1.534-6.055 0L10 5.197 8.864 4.155c-1.672-1.534-4.382-1.534-6.054 0-1.881 1.727-1.881 4.52 0 6.246L10 17l7.19-6.599c1.88-1.726 1.88-4.52 0-6.246z"/></symbol><symbol id="help-with-circle" viewBox="0 0 20 20"><path d="M10 .4A9.6 9.6 0 00.4 10a9.6 9.6 0 1019.2-.001C19.6 4.698 15.301.4 10 .4zm-.151 15.199h-.051c-.782-.023-1.334-.6-1.311-1.371.022-.758.587-1.309 1.343-1.309l.046.002c.804.023 1.35.594 1.327 1.387-.023.76-.578 1.291-1.354 1.291zm3.291-6.531c-.184.26-.588.586-1.098.983l-.562.387c-.308.24-.494.467-.563.688-.056.174-.082.221-.087.576v.09H8.685l.006-.182c.027-.744.045-1.184.354-1.547.485-.568 1.555-1.258 1.6-1.287a1.65 1.65 0 00.379-.387c.225-.311.324-.555.324-.793 0-.334-.098-.643-.293-.916-.188-.266-.545-.398-1.061-.398-.512 0-.863.162-1.072.496-.216.341-.325.7-.325 1.067v.092H6.386l.004-.096c.057-1.353.541-2.328 1.435-2.897.563-.361 1.264-.544 2.081-.544 1.068 0 1.972.26 2.682.772.721.519 1.086 1.297 1.086 2.311-.001.567-.18 1.1-.534 1.585z"/></symbol><symbol id="help" viewBox="0 0 20 20"><path d="M14.09 2.233C12.95 1.411 11.518 1 9.794 1c-1.311 0-2.418.289-3.317.868C5.05 2.774 4.292 4.313 4.2 6.483h3.307c0-.633.185-1.24.553-1.828.369-.586.995-.879 1.878-.879.898 0 1.517.238 1.854.713.339.477.508 1.004.508 1.582 0 .504-.252.965-.557 1.383a2.88 2.88 0 01-.661.674s-1.793 1.15-2.58 2.074c-.456.535-.497 1.338-.538 2.488-.002.082.029.252.315.252h2.571c.256 0 .309-.189.312-.274.018-.418.064-.633.141-.875.144-.457.538-.855.979-1.199l.91-.627c.822-.641 1.477-1.166 1.767-1.578.494-.676.842-1.51.842-2.5-.001-1.615-.571-2.832-1.711-3.656zM9.741 14.924c-1.139-.035-2.079.754-2.115 1.99-.035 1.234.858 2.051 1.998 2.084 1.189.035 2.104-.727 2.141-1.963.034-1.236-.834-2.076-2.024-2.111z"/></symbol><symbol id="home" viewBox="0 0 20 20"><path d="M18.672 11H17v6c0 .445-.194 1-1 1h-4v-6H8v6H4c-.806 0-1-.555-1-1v-6H1.328c-.598 0-.47-.324-.06-.748L9.292 2.22c.195-.202.451-.302.708-.312.257.01.513.109.708.312l8.023 8.031c.411.425.539.749-.059.749z"/></symbol><symbol id="info-with-circle" viewBox="0 0 20 20"><path d="M10 .4C4.697.4.399 4.698.399 10A9.6 9.6 0 0010 19.601c5.301 0 9.6-4.298 9.6-9.601S15.301.4 10 .4zm.896 3.466c.936 0 1.211.543 1.211 1.164 0 .775-.62 1.492-1.679 1.492-.886 0-1.308-.445-1.282-1.182 0-.621.519-1.474 1.75-1.474zM8.498 15.75c-.64 0-1.107-.389-.66-2.094l.733-3.025c.127-.484.148-.678 0-.678-.191 0-1.022.334-1.512.664l-.319-.523c1.555-1.299 3.343-2.061 4.108-2.061.64 0 .746.756.427 1.92l-.84 3.18c-.149.562-.085.756.064.756.192 0 .82-.232 1.438-.719l.362.486c-1.513 1.512-3.162 2.094-3.801 2.094z"/></symbol><symbol id="info" viewBox="0 0 20 20"><path d="M12.432 0c1.34 0 2.01.912 2.01 1.957 0 1.305-1.164 2.512-2.679 2.512-1.269 0-2.009-.75-1.974-1.99C9.789 1.436 10.67 0 12.432 0zM8.309 20c-1.058 0-1.833-.652-1.093-3.524l1.214-5.092c.211-.814.246-1.141 0-1.141-.317 0-1.689.562-2.502 1.117l-.528-.88c2.572-2.186 5.531-3.467 6.801-3.467 1.057 0 1.233 1.273.705 3.23l-1.391 5.352c-.246.945-.141 1.271.106 1.271.317 0 1.357-.392 2.379-1.207l.6.814C12.098 19.02 9.365 20 8.309 20z"/></symbol><symbol id="link" viewBox="0 0 20 20"><path d="M7.859 14.691l-.81.805a1.814 1.814 0 01-2.545 0 1.762 1.762 0 010-2.504l2.98-2.955c.617-.613 1.779-1.515 2.626-.675a.992.992 0 101.397-1.407c-1.438-1.428-3.566-1.164-5.419.675l-2.98 2.956A3.719 3.719 0 002 14.244a3.72 3.72 0 001.108 2.658c.736.73 1.702 1.096 2.669 1.096s1.934-.365 2.669-1.096l.811-.805c.389-.385.391-1.012.005-1.4s-1.014-.39-1.403-.006zm9.032-11.484c-1.547-1.534-3.709-1.617-5.139-.197l-1.009 1.002a.99.99 0 101.396 1.406l1.01-1.001c.74-.736 1.711-.431 2.346.197.336.335.522.779.522 1.252s-.186.917-.522 1.251l-3.18 3.154c-1.454 1.441-2.136.766-2.427.477a.99.99 0 10-1.396 1.406c.668.662 1.43.99 2.228.99.977 0 2.01-.492 2.993-1.467l3.18-3.153C17.605 7.814 18 6.87 18 5.866s-.395-1.949-1.109-2.659z"/></symbol><symbol id="location-pin" viewBox="0 0 20 20"><path d="M10 2.009c-2.762 0-5 2.229-5 4.99 0 4.774 5 11 5 11s5-6.227 5-11c0-2.76-2.238-4.99-5-4.99zm0 7.751a2.7 2.7 0 110-5.4 2.7 2.7 0 010 5.4z"/></symbol><symbol id="location" viewBox="0 0 20 20"><path d="M19.367 18.102L18 14h-1.5l.833 4H2.667l.833-4H2L.632 18.102C.285 19.146.9 20 2 20h16c1.1 0 1.715-.854 1.367-1.898zM15 5A5 5 0 105 5c0 4.775 5 10 5 10s5-5.225 5-10zm-7.7.06A2.699 2.699 0 0110 2.361a2.699 2.699 0 110 5.399 2.7 2.7 0 01-2.7-2.7z"/></symbol><symbol id="log-out" viewBox="0 0 20 20"><path d="M19 10l-6-5v3H6v4h7v3l6-5zM3 3h8V1H3c-1.1 0-2 .9-2 2v14c0 1.1.9 2 2 2h8v-2H3V3z"/></symbol><symbol id="login" viewBox="0 0 20 20"><path d="M14 10L8 5v3H1v4h7v3l6-5zm3 7H9v2h8c1.1 0 2-.9 2-2V3c0-1.1-.9-2-2-2H9v2h8v14z"/></symbol><symbol id="medal" viewBox="0 0 20 20"><path d="M10 10c.528 0 1.026.104 1.504.256L5.427 1.141A.316.316 0 005.164 1H1.608a.147.147 0 00-.122.229l6.231 9.347A4.94 4.94 0 0110 10zm8.392-9h-3.556a.316.316 0 00-.263.141L10.75 6.875l2 3 5.764-8.646A.147.147 0 0018.392 1zM10 11a4 4 0 100 8 4 4 0 000-8zm2.112 4.117c.062.064.052.158-.022.208s-.095.153-.049.229c.047.076.018.165-.065.199s-.125.13-.095.214-.017.165-.104.181-.149.101-.137.189-.051.158-.14.155c-.089-.003-.167.068-.174.156s-.083.144-.169.123-.178.031-.203.117-.111.124-.191.085c-.08-.039-.18-.006-.222.072s-.134.098-.205.043-.175-.044-.232.024-.151.068-.209 0-.162-.079-.232-.024-.162.035-.205-.043-.142-.111-.222-.072c-.08.039-.166 0-.191-.085s-.116-.138-.203-.117-.163-.034-.169-.123-.084-.159-.173-.157c-.089.003-.152-.067-.14-.155s-.05-.173-.137-.189-.135-.097-.104-.181-.013-.18-.095-.214-.111-.123-.065-.199c.047-.076.025-.179-.049-.229s-.083-.144-.022-.208c.062-.064.062-.169 0-.234s-.052-.158.022-.208.095-.153.049-.229c-.047-.076-.018-.165.065-.199s.125-.13.095-.214.017-.165.104-.181.149-.101.137-.189.051-.158.14-.155c.089.003.167-.068.174-.156s.083-.144.169-.123.178-.031.203-.117.111-.124.191-.085c.08.039.18.006.222-.072s.134-.098.205-.043.175.044.232-.024.151-.068.209 0 .162.079.232.024.162-.035.205.043.142.111.222.072c.08-.039.166 0 .191.085s.116.138.203.117.163.034.169.123.085.159.174.156c.089-.003.152.067.14.155s.05.173.137.189.135.097.104.181.013.18.095.214.111.123.065.199c-.047.076-.025.179.049.229s.083.144.022.208-.063.171-.001.235z"/></symbol><symbol id="megaphone" viewBox="0 0 20 20"><path d="M17.223 7.03c-1.584-3.686-4.132-6.49-5.421-5.967-2.189.891 1.304 5.164-9.447 9.533-.929.379-1.164 1.888-.775 2.792.388.902 1.658 1.801 2.587 1.424.161-.066.751-.256.751-.256.663.891 1.357.363 1.604.928l1.158 2.66c.219.502.715.967 1.075.83l2.05-.779c.468-.177.579-.596.436-.924-.154-.355-.786-.459-.967-.873-.18-.412-.769-1.738-.938-2.156-.23-.568.259-1.031.97-1.104 4.894-.512 5.809 2.512 7.475 1.834 1.287-.525 1.025-4.259-.558-7.942zm-.551 5.976c-.287.115-2.213-1.402-3.443-4.267-1.231-2.863-1.076-5.48-.79-5.597.286-.115 2.165 1.717 3.395 4.58s1.124 5.167.838 5.284z"/></symbol><symbol id="menu" viewBox="0 0 20 20"><path d="M16.4 9H3.6c-.552 0-.6.447-.6 1s.048 1 .6 1h12.8c.552 0 .6-.447.6-1s-.048-1-.6-1zm0 4H3.6c-.552 0-.6.447-.6 1s.048 1 .6 1h12.8c.552 0 .6-.447.6-1s-.048-1-.6-1zM3.6 7h12.8c.552 0 .6-.447.6-1s-.048-1-.6-1H3.6c-.552 0-.6.447-.6 1s.048 1 .6 1z"/></symbol><symbol id="message" viewBox="0 0 20 20"><path d="M18 6v7c0 1.1-.9 2-2 2h-4v3l-4-3H4c-1.101 0-2-.9-2-2V6c0-1.1.899-2 2-2h12c1.1 0 2 .9 2 2z"/></symbol><symbol id="mic" viewBox="0 0 20 20"><path d="M16.399 7.643V10.4c0 2.236-1.643 4.629-5.399 4.959V18h2.6c.22 0 .4.18.4.4v1.2c0 .221-.181.4-.4.4H6.4c-.22 0-.4-.18-.4-.4v-1.2c0-.22.18-.4.399-.4H9v-2.641c-3.758-.33-5.4-2.723-5.4-4.959V7.643a.4.4 0 01.4-.4h.6c.22 0 .4.18.4.4V10.4c0 1.336 1.053 3.6 5 3.6s5-2.264 5-3.6V7.643a.4.4 0 01.399-.4H16a.399.399 0 01.399.4zM10 12c2.346 0 3-.965 3-1.6V7.242H7V10.4c0 .635.652 1.6 3 1.6zm3-10.4c0-.637-.654-1.6-3-1.6-2.348 0-3 .963-3 1.6v4.242h6V1.6z"/></symbol><symbol id="minus" viewBox="0 0 20 20"><path d="M16 10c0 .553-.048 1-.601 1H4.601C4.049 11 4 10.553 4 10s.049-1 .601-1H15.4c.552 0 .6.447.6 1z"/></symbol><symbol id="mobile" viewBox="0 0 20 20"><path d="M14.004 0H5.996A1.996 1.996 0 004 1.996v16.007C4 19.106 4.894 20 5.996 20h8.007A1.997 1.997 0 0016 18.004V1.996A1.996 1.996 0 0014.004 0zM10 19c-.69 0-1.25-.447-1.25-1s.56-1 1.25-1 1.25.447 1.25 1-.56 1-1.25 1zm4-3H6V2h8v14z"/></symbol><symbol id="modern-mic" viewBox="0 0 20 20"><path d="M1.228 10.891a.528.528 0 00-.159.69l1.296 2.244c.133.23.438.325.677.208L7 12.116V19h2v-7.854l4.071-1.973-2.62-4.54-9.223 6.258zm17.229-7.854a4.061 4.061 0 00-5.546-1.484c-.91.525-1.508 1.359-1.801 2.289l2.976 5.156c.951.212 1.973.11 2.885-.415a4.06 4.06 0 001.486-5.546z"/></symbol><symbol id="music" viewBox="0 0 20 20"><path d="M16 1H4a1 1 0 00-1 1v16a1 1 0 001 1h12a1 1 0 001-1V2a1 1 0 00-1-1zm-3.205 10.519c-.185.382-.373.402-.291 0C12.715 10.48 12.572 8.248 11 8v4.75c0 .973-.448 1.82-1.639 2.203-1.156.369-2.449-.016-2.752-.846s.377-1.84 1.518-2.256c.637-.232 1.375-.292 1.873-.101V5h1c0 2.355 4.065 1.839 1.795 6.519z"/></symbol><symbol id="new-message" viewBox="0 0 20 20"><path d="M18.174 1.826c-1.102-1.102-2.082-.777-2.082-.777L7.453 9.681 6 14l4.317-1.454 8.634-8.638s.324-.98-.777-2.082zm-7.569 9.779l-.471.47-1.473.5c-.104-.24-.234-.477-.498-.74s-.5-.394-.74-.498l.5-1.473.471-.47s.776-.089 1.537.673c.762.761.674 1.538.674 1.538zM16 17H3V4h5l2-2H3c-1.1 0-2 .9-2 2v13c0 1.1.9 2 2 2h13c1.1 0 2-.9 2-2v-7l-2 2v5z"/></symbol><symbol id="note" viewBox="0 0 20 20"><path d="M14.971 9.438c-.422.656-.646.375-.52 0 .336-.993.348-4.528-2.451-4.969L11.998 16c0 1.657-1.735 4-4.998 4-1.657 0-3-.871-3-2.5 0-2.119 1.927-3.4 4-3.4 1.328 0 2 .4 2 .4V0h2c0 2.676 5.986 4.744 2.971 9.438z"/></symbol><symbol id="pencil" viewBox="0 0 20 20"><path d="M14.69 2.661c-1.894-1.379-3.242-1.349-3.754-1.266a.538.538 0 00-.35.223l-6.883 9.497a2.447 2.447 0 00-.462 1.307l-.296 5.624a.56.56 0 00.76.553l5.256-2.01c.443-.17.828-.465 1.106-.849l6.88-9.494a.56.56 0 00.1-.423c-.084-.526-.487-1.802-2.357-3.162zM8.977 15.465l-2.043.789a.19.19 0 01-.221-.062 5.145 5.145 0 00-1.075-1.03 5.217 5.217 0 00-1.31-.706.192.192 0 01-.126-.192l.122-2.186.549-.755s1.229-.169 2.833.998c1.602 1.166 1.821 2.388 1.821 2.388l-.55.756z"/></symbol><symbol id="phone" viewBox="0 0 20 20"><path d="M11.229 11.229c-1.583 1.582-3.417 3.096-4.142 2.371-1.037-1.037-1.677-1.941-3.965-.102-2.287 1.838-.53 3.064.475 4.068 1.16 1.16 5.484.062 9.758-4.211 4.273-4.274 5.368-8.598 4.207-9.758-1.005-1.006-2.225-2.762-4.063-.475s-.936 2.927.103 3.965c.722.725-.791 2.559-2.373 4.142z"/></symbol><symbol id="pin" viewBox="0 0 20 20"><path d="M4.774 15.287l-2.105 3.25.224 1.063 1.06-.227 2.104-3.248a8.352 8.352 0 01-1.283-.838zm8.912-1.135c.014-.029.023-.061.036-.092.053-.117.1-.234.138-.357.006-.022.009-.044.016-.064a4.48 4.48 0 00.098-.408v-.021c.195-1.169-.145-2.473-.923-3.651l1.11-1.714c1.279.163 2.385-.159 2.917-.982.923-1.423-.2-3.792-2.505-5.293C12.266.068 9.65.005 8.729 1.426c-.534.824-.378 1.967.293 3.073L7.91 6.213c-1.389-.233-2.716-.016-3.703.64-.006.002-.013.004-.017.008a3.735 3.735 0 00-.332.254c-.017.014-.037.027-.051.041a3.024 3.024 0 00-.271.272c-.02.024-.048.045-.067.07a3.102 3.102 0 00-.29.385c-1.384 2.133-.203 5.361 2.633 7.209 2.838 1.848 6.26 1.614 7.641-.519.087-.135.167-.276.233-.421zm-.815-9.958c-.887-.577-1.32-1.487-.965-2.036.354-.547 1.361-.522 2.246.055.889.577 1.318 1.489.965 2.036s-1.358.522-2.246-.055z"/></symbol><symbol id="plus" viewBox="0 0 20 20"><path d="M16 10c0 .553-.048 1-.601 1H11v4.399c0 .552-.447.601-1 .601s-1-.049-1-.601V11H4.601C4.049 11 4 10.553 4 10s.049-1 .601-1H9V4.601C9 4.048 9.447 4 10 4s1 .048 1 .601V9h4.399c.553 0 .601.447.601 1z"/></symbol><symbol id="price-ribbon" viewBox="0 0 20 20"><path d="M12.825 10.653c.118-.258.445-.497.727-.529s.539-.29.571-.572c.034-.28.272-.608.529-.727s.423-.443.369-.72c-.058-.278.068-.663.276-.854a.689.689 0 00.127-.801 1.017 1.017 0 010-.897c.139-.249.082-.608-.127-.801s-.333-.577-.276-.854a.691.691 0 00-.369-.722 1.03 1.03 0 01-.529-.727c-.033-.28-.29-.538-.571-.572s-.609-.272-.727-.528a.686.686 0 00-.722-.366 1.024 1.024 0 01-.854-.278c-.193-.21-.553-.266-.8-.127s-.652.139-.898 0a.684.684 0 00-.801.125 1.022 1.022 0 01-.854.278.685.685 0 00-.72.367c-.119.256-.446.495-.728.527a.69.69 0 00-.572.573 1.023 1.023 0 01-.529.726c-.256.119-.422.444-.366.722s-.07.662-.278.854-.266.552-.127.801c.139.246.139.651 0 .897a.69.69 0 00.127.802c.209.19.333.575.278.854a.687.687 0 00.366.72c.258.119.495.447.528.727.034.282.29.54.572.572s.609.272.728.529a.688.688 0 00.72.366c.278-.055.663.069.854.278a.69.69 0 00.801.127c.246-.139.651-.139.898 0s.607.081.8-.127c.193-.21.576-.333.854-.278s.604-.109.723-.365zM10 9.399a3.4 3.4 0 110-6.8 3.4 3.4 0 010 6.8zm-4.025 2.01l-1.243 7.049 3.128-.464 2.781 1.506 1.238-7.021a6.707 6.707 0 01-5.904-1.07zm7.986.048a6.741 6.741 0 01-.99.597l-.748 4.236 3.369-1.828-1.631-3.005z"/></symbol><symbol id="price-tag" viewBox="0 0 20 20"><path d="M19.388.405a.605.605 0 00-1.141.399c.929 2.67-.915 4.664-2.321 5.732l-.568-.814c-.191-.273-.618-.5-.95-.504l-3.188.014a2.162 2.162 0 00-1.097.338L.729 12.157a1.01 1.01 0 00-.247 1.404l4.269 6.108c.32.455.831.4 1.287.082l9.394-6.588c.27-.191.582-.603.692-.918l.998-3.145c.11-.314.043-.793-.148-1.066l-.346-.496c1.888-1.447 3.848-4.004 2.76-7.133zm-4.371 9.358a1.608 1.608 0 01-2.24-.396 1.614 1.614 0 01.395-2.246 1.607 1.607 0 011.868.017c-.272.164-.459.26-.494.275a.606.606 0 00.259 1.153c.086 0 .174-.02.257-.059.194-.092.402-.201.619-.33a1.615 1.615 0 01-.664 1.586z"/></symbol><symbol id="quote" viewBox="0 0 20 20"><path d="M5.315 3.401c-1.61 0-2.916 1.343-2.916 3s1.306 3 2.916 3c2.915 0 .972 5.799-2.916 5.799v1.4c6.939.001 9.658-13.199 2.916-13.199zm8.4 0c-1.609 0-2.915 1.343-2.915 3s1.306 3 2.915 3c2.916 0 .973 5.799-2.915 5.799v1.4c6.938.001 9.657-13.199 2.915-13.199z"/></symbol><symbol id="share" viewBox="0 0 20 20"><path d="M15 13.442c-.633 0-1.204.246-1.637.642l-5.938-3.463c.046-.188.075-.384.075-.584s-.029-.395-.075-.583L13.3 6.025A2.48 2.48 0 0015 6.7c1.379 0 2.5-1.121 2.5-2.5S16.379 1.7 15 1.7s-2.5 1.121-2.5 2.5c0 .2.029.396.075.583L6.7 8.212A2.485 2.485 0 005 7.537c-1.379 0-2.5 1.121-2.5 2.5s1.121 2.5 2.5 2.5a2.48 2.48 0 001.7-.675l5.938 3.463a2.339 2.339 0 00-.067.546A2.428 2.428 0 1015 13.442z"/></symbol><symbol id="shield" viewBox="0 0 20 20"><path d="M17.604 3.332C12.99 4 12.075 2.833 10 1 7.925 2.833 7.01 4 2.396 3.332-.063 15.58 10 19 10 19s10.063-3.42 7.604-15.668zm-5.131 9.977L10 12.009l-2.472 1.3L8 10.556l-2-1.95 2.764-.401L10 5.7l1.236 2.505L14 8.606l-2 1.949.473 2.754z"/></symbol><symbol id="shop" viewBox="0 0 20 20"><path d="M6.123 7.25L6.914 2H2.8L1.081 6.5C1.028 6.66 1 6.826 1 7c0 1.104 1.15 2 2.571 2 1.31 0 2.393-.764 2.552-1.75zM10 9c1.42 0 2.571-.896 2.571-2 0-.041-.003-.082-.005-.121L12.057 2H7.943l-.51 4.875A2.527 2.527 0 007.429 7c0 1.104 1.151 2 2.571 2zm5 1.046V14H5v-3.948c-.438.158-.92.248-1.429.248-.195 0-.384-.023-.571-.049V16.6c0 .77.629 1.4 1.398 1.4H15.6c.77 0 1.4-.631 1.4-1.4v-6.348a4.297 4.297 0 01-.571.049A4.155 4.155 0 0115 10.046zM18.92 6.5L17.199 2h-4.113l.79 5.242C14.03 8.232 15.113 9 16.429 9 17.849 9 19 8.104 19 7c0-.174-.028-.34-.08-.5z"/></symbol><symbol id="shopping-cart" viewBox="0 0 20 20"><path d="M13 17a2 2 0 103.999.001A2 2 0 0013 17zM3 17a2 2 0 104 0 2 2 0 00-4 0zm3.547-4.828L17.615 9.01A.564.564 0 0018 8.5V3H4V1.4c0-.22-.181-.4-.399-.4H.399A.401.401 0 000 1.4V3h2l1.91 8.957.09.943v1.649c0 .219.18.4.4.4h13.2c.22 0 .4-.182.4-.4V13H6.752c-1.15 0-1.174-.551-.205-.828z"/></symbol><symbol id="signal" viewBox="0 0 20 20"><path d="M10 14a1.99 1.99 0 00-1.981 2c0 1.104.887 2 1.981 2s1.98-.896 1.98-2c0-1.105-.886-2-1.98-2zm-4.2-2.242l1.4 1.414a3.933 3.933 0 015.601 0l1.399-1.414a5.898 5.898 0 00-8.4 0zM3 8.928l1.4 1.414a7.864 7.864 0 0111.199 0L17 8.928a9.831 9.831 0 00-14 0zM.199 6.1l1.4 1.414a11.797 11.797 0 0116.801 0L19.8 6.1a13.763 13.763 0 00-19.601 0z"/></symbol><symbol id="sound-mix" viewBox="0 0 20 20"><path d="M5 1.6c0-.553-.448-.6-1-.6-.553 0-1 .047-1 .6V10h2V1.6zM3 18.4c0 .551.447.6 1 .6.552 0 1-.049 1-.6V15H3v3.4zM6.399 11h-4.8C1.046 11 1 11.448 1 12v1c0 .553.046 1 .599 1H6.4c.55 0 .6-.447.6-1v-1c0-.552-.05-1-.601-1zm12 1h-4.801c-.552 0-.598.448-.598 1v1c0 .553.046 1 .599 1H18.4c.55 0 .6-.447.6-1v-1c0-.552-.05-1-.601-1zM13 7c0-.552-.05-1-.601-1h-4.8C7.046 6 7 6.448 7 7v1c0 .553.046 1 .599 1H12.4c.55 0 .6-.447.6-1V7zm-2-5.4c0-.553-.448-.6-1-.6-.553 0-1 .047-1 .6V5h2V1.6zM9 18.4c0 .551.447.6 1 .6.552 0 1-.049 1-.6V10H9v8.4zm8-16.8c0-.553-.448-.6-1-.6-.553 0-1 .047-1 .6V11h2V1.6zm-2 16.8c0 .551.447.6 1 .6.552 0 1-.049 1-.6V16h-2v2.4z"/></symbol><symbol id="star-outlined" viewBox="0 0 20 20"><path d="M18.8 8.022h-6.413L10 1.3 7.611 8.022H1.199l5.232 3.947-1.871 6.929L10 14.744l5.438 4.154-1.869-6.929L18.8 8.022zM10 12.783l-3.014 2.5 1.243-3.562-2.851-2.3 3.522.101 1.1-4.04 1.099 4.04 3.521-.101-2.851 2.3 1.243 3.562-3.012-2.5z"/></symbol><symbol id="star" viewBox="0 0 20 20"><path d="M10 1.3l2.388 6.722H18.8l-5.232 3.948 1.871 6.928L10 14.744l-5.438 4.154 1.87-6.928-5.233-3.948h6.412L10 1.3z"/></symbol><symbol id="stopwatch" viewBox="0 0 20 20"><path d="M7.376 6.745c-.447.275 1.197 4.242 1.598 4.888a1.206 1.206 0 002.053-1.266c-.397-.648-3.205-3.898-3.651-3.622zm-.335-4.343a8.98 8.98 0 015.918 0c.329.114.765-.115.572-.611-.141-.36-.277-.712-.332-.855-.131-.339-.6-.619-.804-.665C11.623.097 10.823 0 10 0S8.377.097 7.604.271c-.204.046-.672.326-.803.665l-.332.855c-.193.496.243.726.572.611zm12.057.784a10.132 10.132 0 00-1.283-1.285c-.153-.129-.603-.234-.888.051l-1.648 1.647c.402.288.793.605 1.155.966s.677.752.966 1.155l1.647-1.647c.286-.286.181-.735.051-.887zM10 2.9a8.1 8.1 0 10-.001 16.201A8.1 8.1 0 0010 2.9zm0 14.201A6.1 6.1 0 1110.001 4.9 6.1 6.1 0 0110 17.1z"/></symbol><symbol id="switch" viewBox="0 0 20 20"><path d="M13 3H7a7 7 0 100 14h6a7 7 0 100-14zm0 12a5 5 0 11.001-10.001A5 5 0 0113 15z"/></symbol><symbol id="thumbs-up" viewBox="0 0 20 20"><path d="M13.648 7.362c-.133-.355 3.539-3.634 1.398-6.291-.501-.621-2.201 2.975-4.615 4.603C9.099 6.572 6 8.484 6 9.541v6.842C6 17.654 10.914 19 14.648 19 16.017 19 18 10.424 18 9.062c0-1.368-4.221-1.344-4.352-1.7zM5 7.457c-.658 0-3 .4-3 3.123v4.848c0 2.721 2.342 3.021 3 3.021.657 0-1-.572-1-2.26V9.816c0-1.768 1.657-2.359 1-2.359z"/></symbol><symbol id="tools" viewBox="0 0 20 20"><path d="M3.135 6.89c.933-.725 1.707-.225 2.74.971.116.135.272-.023.361-.1.088-.078 1.451-1.305 1.518-1.361.066-.059.146-.169.041-.292a36.238 36.238 0 01-.743-.951c-1.808-2.365 4.946-3.969 3.909-3.994-.528-.014-2.646-.039-2.963-.004-1.283.135-2.894 1.334-3.705 1.893-1.061.726-1.457 1.152-1.522 1.211-.3.262-.048.867-.592 1.344-.575.503-.934.122-1.267.414-.165.146-.627.492-.759.607-.133.117-.157.314-.021.471 0 0 1.264 1.396 1.37 1.52.105.122.391.228.567.071.177-.156.632-.553.708-.623.078-.066-.05-.861.358-1.177zm5.708.517c-.12-.139-.269-.143-.397-.029L7.012 8.63a.289.289 0 00-.027.4l8.294 9.439c.194.223.53.246.751.053l.97-.813a.54.54 0 00.052-.758L8.843 7.407zM19.902 3.39c-.074-.494-.33-.391-.463-.182-.133.211-.721 1.102-.963 1.506-.24.4-.832 1.191-1.934.41-1.148-.811-.749-1.377-.549-1.758.201-.383.818-1.457.907-1.59.089-.135-.015-.527-.371-.363s-2.523 1.025-2.823 2.26c-.307 1.256.257 2.379-.85 3.494l-1.343 1.4 1.349 1.566 1.654-1.57c.394-.396 1.236-.781 1.998-.607 1.633.369 2.524-.244 3.061-1.258.482-.906.402-2.814.327-3.308zM2.739 17.053a.538.538 0 000 .758l.951.93c.208.209.538.121.746-.088l4.907-4.824-1.503-1.714-5.101 4.938z"/></symbol><symbol id="trophy" viewBox="0 0 20 20"><path d="M11.18 14.356c0-1.451 1.1-2.254 2.894-3.442C16.268 9.458 19 7.649 19 3.354a.703.703 0 00-.709-.699h-3.43C14.377 1.759 12.932.8 10 .8c-2.934 0-4.377.959-4.862 1.855H1.707A.703.703 0 001 3.354c0 4.295 2.73 6.104 4.926 7.559 1.794 1.188 2.894 1.991 2.894 3.442v1.311c-1.884.209-3.269.906-3.269 1.736 0 .994 1.992 1.799 4.449 1.799s4.449-.805 4.449-1.799c0-.83-1.385-1.527-3.269-1.736v-1.31zM13.957 9.3c.566-1.199 1.016-2.826 1.088-5.246h2.51c-.24 2.701-1.862 4.064-3.598 5.246zM10 2.026c2.732-.002 3.799 1.115 3.798 1.529 0 .418-1.066 1.533-3.798 1.535-2.732-.001-3.799-1.116-3.799-1.534C6.2 3.142 7.268 2.024 10 2.026zM2.445 4.054h2.509c.073 2.42.521 4.047 1.089 5.246-1.736-1.182-3.359-2.545-3.598-5.246z"/></symbol><symbol id="typing" viewBox="0 0 20 20"><path d="M16 4H4c-1.101 0-2 .9-2 2v7c0 1.1.899 2 2 2h4l4 3v-3h4c1.1 0 2-.9 2-2V6c0-1.1-.9-2-2-2zM6 10.6a1.1 1.1 0 110-2.2 1.1 1.1 0 010 2.2zm4 0a1.1 1.1 0 110-2.2 1.1 1.1 0 010 2.2zm4 0a1.1 1.1 0 110-2.2 1.1 1.1 0 010 2.2z"/></symbol><symbol id="unread" viewBox="0 0 20 20"><path d="M17 3a2 2 0 100 4 2 2 0 000-4zm-4.5 1h-11a.5.5 0 00-.5.5v1a.5.5 0 00.5.5h11a.5.5 0 00.5-.5v-1a.5.5 0 00-.5-.5zm0 5h-11a.5.5 0 00-.5.5v1a.5.5 0 00.5.5h11a.5.5 0 00.5-.5v-1a.5.5 0 00-.5-.5zm0 5h-11a.5.5 0 00-.5.5v1a.5.5 0 00.5.5h11a.5.5 0 00.5-.5v-1a.5.5 0 00-.5-.5z"/></symbol><symbol id="user" viewBox="0 0 20 20"><path d="M7.725 2.146c-1.016.756-1.289 1.953-1.239 2.59.064.779.222 1.793.222 1.793s-.313.17-.313.854c.109 1.717.683.976.801 1.729.284 1.814.933 1.491.933 2.481 0 1.649-.68 2.42-2.803 3.334C3.196 15.845 1 17 1 19v1h18v-1c0-2-2.197-3.155-4.328-4.072-2.123-.914-2.801-1.684-2.801-3.334 0-.99.647-.667.932-2.481.119-.753.692-.012.803-1.729 0-.684-.314-.854-.314-.854s.158-1.014.221-1.793c.065-.817-.398-2.561-2.3-3.096-.333-.34-.558-.881.466-1.424-2.24-.105-2.761 1.067-3.954 1.929z"/></symbol><symbol id="users" viewBox="0 0 20 20"><path d="M15.989 19.129c0-2.246-2.187-3.389-4.317-4.307-2.123-.914-2.801-1.684-2.801-3.334 0-.989.648-.667.932-2.481.12-.752.692-.012.802-1.729 0-.684-.313-.854-.313-.854s.159-1.013.221-1.793c.064-.817-.398-2.56-2.301-3.095-.332-.341-.557-.882.467-1.424-2.24-.104-2.761 1.068-3.954 1.93-1.015.756-1.289 1.953-1.24 2.59.065.78.223 1.793.223 1.793s-.314.17-.314.854c.11 1.718.684.977.803 1.729.284 1.814.933 1.492.933 2.481 0 1.65-.212 2.21-2.336 3.124C.663 15.53 0 17 .011 19.129.014 19.766 0 20 0 20h16s-.011-.234-.011-.871zm2.539-5.764c-1.135-.457-1.605-1.002-1.605-2.066 0-.641.418-.432.602-1.603.077-.484.447-.008.518-1.115 0-.441-.202-.551-.202-.551s.103-.656.143-1.159c.05-.627-.364-2.247-2.268-2.247s-2.318 1.62-2.269 2.247c.042.502.144 1.159.144 1.159s-.202.109-.202.551c.071 1.107.441.631.518 1.115.184 1.172.602.963.602 1.603 0 1.064-.438 1.562-1.809 2.152-.069.029-.12.068-.183.102 1.64.712 4.226 1.941 4.838 4.447H20v-2.318c0-1-.273-1.834-1.472-2.317z"/></symbol><symbol id="skype-with-circle" viewBox="0 0 20 20"><path d="M12.164 9.852a3.477 3.477 0 00-.841-.395 11.065 11.065 0 00-1.087-.293 16.093 16.093 0 01-.679-.172 2.031 2.031 0 01-.396-.158.89.89 0 01-.293-.229.46.46 0 01-.098-.295c0-.188.1-.346.305-.484.212-.143.499-.215.851-.215.38 0 .656.064.821.193.17.133.318.322.44.562.106.188.201.318.294.4.099.09.241.137.423.137.201 0 .37-.072.505-.217a.698.698 0 00.202-.488c0-.188-.053-.383-.154-.576s-.262-.379-.477-.553a2.486 2.486 0 00-.811-.416 3.77 3.77 0 00-1.147-.156c-.55 0-1.035.078-1.443.234-.413.158-.734.388-.954.683a1.67 1.67 0 00-.334 1.023c0 .4.107.74.318 1.012.207.268.492.482.844.637.346.15.778.283 1.289.396.374.08.678.158.901.23.214.068.391.168.525.297a.632.632 0 01.189.481c0 .252-.119.457-.363.631-.251.176-.584.264-.99.264-.296 0-.535-.043-.714-.131a1.097 1.097 0 01-.412-.326 2.564 2.564 0 01-.282-.516 1.163 1.163 0 00-.289-.434.63.63 0 00-.432-.154.716.716 0 00-.514.195.648.648 0 00-.205.479c0 .295.106.604.315.912.207.309.479.557.81.74.462.252 1.054.379 1.76.379.588 0 1.104-.094 1.536-.277.435-.186.771-.449.998-.779a1.96 1.96 0 00.344-1.129c0-.348-.067-.648-.2-.891s-.32-.443-.555-.601zM10 .4C4.698.4.4 4.698.4 10s4.298 9.6 9.6 9.6 9.6-4.298 9.6-9.6S15.302.4 10 .4zm2.301 14.975c-.487 0-.946-.125-1.348-.348a4.68 4.68 0 01-.9.086c-2.713 0-4.914-2.266-4.914-5.057 0-.35.035-.69.1-1.018a2.967 2.967 0 01-.392-1.481c0-1.619 1.276-2.934 2.851-2.934.557 0 1.076.166 1.516.451.272-.049.554-.074.839-.074 2.715 0 4.915 2.264 4.915 5.057 0 .371-.039.734-.113 1.084.189.393.296.834.296 1.303-.001 1.618-1.276 2.931-2.85 2.931z"/></symbol><symbol id="skype" viewBox="0 0 20 20"><path d="M18.671 12.037a9.347 9.347 0 00.203-1.938c0-4.986-3.93-9.029-8.777-9.029-.511 0-1.012.047-1.5.133A4.962 4.962 0 005.89.4C3.079.4.8 2.744.8 5.637c0 .965.256 1.871.699 2.648a9.348 9.348 0 00-.178 1.815c0 4.986 3.93 9.029 8.775 9.029.551 0 1.087-.051 1.607-.15a4.956 4.956 0 002.406.621c2.811 0 5.09-2.344 5.09-5.236a5.328 5.328 0 00-.528-2.327zm-4.072 2.379c-.406.59-1.006 1.059-1.783 1.391-.769.33-1.692.496-2.742.496-1.26 0-2.317-.227-3.143-.678a4.161 4.161 0 01-1.445-1.318c-.372-.555-.561-1.104-.561-1.633 0-.33.123-.617.365-.852.24-.232.549-.352.916-.352.301 0 .562.094.773.277.202.176.375.438.514.773.156.367.326.676.505.92.172.234.42.432.735.586.318.154.748.232 1.275.232.725 0 1.32-.158 1.768-.473.438-.309.65-.676.65-1.127 0-.357-.111-.637-.34-.857a2.409 2.409 0 00-.936-.531 18.034 18.034 0 00-1.611-.41c-.91-.201-1.683-.439-2.299-.707-.63-.275-1.137-.658-1.508-1.137-.375-.483-.567-1.092-.567-1.807 0-.682.2-1.297.596-1.828.393-.525.965-.935 1.703-1.217.728-.277 1.596-.418 2.576-.418.783 0 1.473.094 2.047.277.578.186 1.066.436 1.449.744.387.311.674.643.854.986.182.35.275.695.275 1.031 0 .322-.121.615-.361.871-.24.258-.543.387-.9.387-.324 0-.58-.082-.756-.242-.164-.148-.336-.383-.524-.717-.219-.428-.484-.766-.788-1.002-.295-.232-.788-.35-1.466-.35-.629 0-1.141.131-1.519.387-.368.249-.545.532-.545.866 0 .207.058.379.176.525.125.158.301.295.523.41.23.12.467.214.705.282.244.07.654.172 1.215.307.711.156 1.363.332 1.939.521a6.22 6.22 0 011.502.705c.42.283.754.645.989 1.076.237.434.357.969.357 1.59a3.49 3.49 0 01-.613 2.016z"/></symbol><symbol id="facebook-with-circle" viewBox="0 0 20 20"><path d="M10 .4C4.698.4.4 4.698.4 10s4.298 9.6 9.6 9.6 9.6-4.298 9.6-9.6S15.302.4 10 .4zm2.274 6.634h-1.443c-.171 0-.361.225-.361.524V8.6h1.805l-.273 1.486H10.47v4.461H8.767v-4.461H7.222V8.6h1.545v-.874c0-1.254.87-2.273 2.064-2.273h1.443v1.581z"/></symbol><symbol id="facebook" viewBox="0 0 20 20"><path d="M17 1H3c-1.1 0-2 .9-2 2v14c0 1.101.9 2 2 2h7v-7H8V9.525h2v-2.05c0-2.164 1.212-3.684 3.766-3.684l1.803.002v2.605h-1.197c-.994 0-1.372.746-1.372 1.438v1.69h2.568L15 12h-2v7h4c1.1 0 2-.899 2-2V3c0-1.1-.9-2-2-2z"/></symbol><symbol id="instagram-with-circle" viewBox="0 0 20 20"><path d="M13 10a3 3 0 11-6 0c0-.171.018-.338.049-.5H6v3.997c0 .278.225.503.503.503h6.995a.503.503 0 00.502-.503V9.5h-1.049c.031.162.049.329.049.5zm-3 2a2 2 0 10-.001-4.001A2 2 0 0010 12zm2.4-4.1h1.199a.301.301 0 00.301-.3V6.401a.301.301 0 00-.301-.301H12.4a.301.301 0 00-.301.301V7.6c.001.165.136.3.301.3zM10 .4C4.698.4.4 4.698.4 10s4.298 9.6 9.6 9.6 9.6-4.298 9.6-9.6S15.302.4 10 .4zm5 13.489C15 14.5 14.5 15 13.889 15H6.111C5.5 15 5 14.5 5 13.889V6.111C5 5.5 5.5 5 6.111 5h7.778C14.5 5 15 5.5 15 6.111v7.778z"/></symbol><symbol id="instagram" viewBox="0 0 20 20"><path d="M17 1H3c-1.1 0-2 .9-2 2v14c0 1.101.9 2 2 2h14c1.1 0 2-.899 2-2V3c0-1.1-.9-2-2-2zM9.984 15.523a5.539 5.539 0 005.538-5.539c0-.338-.043-.664-.103-.984H17v7.216a.69.69 0 01-.693.69H3.693a.69.69 0 01-.693-.69V9h1.549c-.061.32-.104.646-.104.984a5.54 5.54 0 005.539 5.539zM6.523 9.984a3.461 3.461 0 013.462-3.461 3.461 3.461 0 110 6.923 3.461 3.461 0 01-3.462-3.462zM16.307 6h-1.615A.694.694 0 0114 5.308V3.691c0-.382.31-.691.691-.691h1.615c.384 0 .694.309.694.691v1.616c0 .381-.31.693-.693.693z"/></symbol><symbol id="linkedin-with-circle" viewBox="0 0 20 20"><path d="M10 .4C4.698.4.4 4.698.4 10s4.298 9.6 9.6 9.6 9.6-4.298 9.6-9.6S15.302.4 10 .4zM7.65 13.979H5.706V7.723H7.65v6.256zm-.984-7.024c-.614 0-1.011-.435-1.011-.973 0-.549.409-.971 1.036-.971s1.011.422 1.023.971c0 .538-.396.973-1.048.973zm8.084 7.024h-1.944v-3.467c0-.807-.282-1.355-.985-1.355-.537 0-.856.371-.997.728-.052.127-.065.307-.065.486v3.607H8.814v-4.26c0-.781-.025-1.434-.051-1.996h1.689l.089.869h.039c.256-.408.883-1.01 1.932-1.01 1.279 0 2.238.857 2.238 2.699v3.699z"/></symbol><symbol id="linkedin" viewBox="0 0 20 20"><path d="M5 3c0 1.062-.71 1.976-2.001 1.976C1.784 4.976 1 4.114 1 3.052 1 1.962 1.76 1 3 1s1.976.91 2 2zM1 19V6h4v13H1zm6-8.556c0-1.545-.051-2.836-.102-3.951h3.594l.178 1.723h.076c.506-.811 1.746-2 3.822-2C17.1 6.216 19 7.911 19 11.558V19h-4v-6.861c0-1.594-.607-2.81-2-2.81-1.062 0-1.594.86-1.873 1.569-.102.254-.127.608-.127.963V19H7v-8.556z"/></symbol><symbol id="pinterest-with-circle" viewBox="0 0 20 20"><path d="M10 .4C4.698.4.4 4.698.4 10s4.298 9.6 9.6 9.6 9.6-4.298 9.6-9.6S15.302.4 10 .4zm.657 11.875c-.616-.047-.874-.352-1.356-.644-.265 1.391-.589 2.725-1.549 3.422-.297-2.104.434-3.682.774-5.359-.579-.975.069-2.936 1.291-2.454 1.503.596-1.302 3.625.581 4.004 1.966.394 2.769-3.412 1.55-4.648-1.762-1.787-5.127-.041-4.713 2.517.1.625.747.815.258 1.678-1.127-.25-1.464-1.139-1.42-2.324.069-1.94 1.743-3.299 3.421-3.486 2.123-.236 4.115.779 4.391 2.777.309 2.254-.959 4.693-3.228 4.517z"/></symbol><symbol id="pinterest" viewBox="0 0 20 20"><path d="M8.617 13.227C8.091 15.981 7.45 18.621 5.549 20c-.586-4.162.861-7.287 1.534-10.605-1.147-1.93.138-5.812 2.555-4.855 2.975 1.176-2.576 7.172 1.15 7.922 3.891.781 5.479-6.75 3.066-9.199C10.369-.275 3.708 3.18 4.528 8.245c.199 1.238 1.478 1.613.511 3.322-2.231-.494-2.897-2.254-2.811-4.6.138-3.84 3.449-6.527 6.771-6.9 4.201-.471 8.144 1.543 8.689 5.494.613 4.461-1.896 9.293-6.389 8.945-1.218-.095-1.728-.699-2.682-1.279z"/></symbol><symbol id="twitter-with-circle" viewBox="0 0 20 20"><path d="M10 .4C4.698.4.4 4.698.4 10s4.298 9.6 9.6 9.6 9.6-4.298 9.6-9.6S15.302.4 10 .4zm3.905 7.864c.004.082.005.164.005.244 0 2.5-1.901 5.381-5.379 5.381a5.335 5.335 0 01-2.898-.85c.147.018.298.025.451.025.886 0 1.701-.301 2.348-.809a1.895 1.895 0 01-1.766-1.312 1.9 1.9 0 00.853-.033 1.892 1.892 0 01-1.517-1.854v-.023c.255.141.547.227.857.237a1.89 1.89 0 01-.585-2.526 5.376 5.376 0 003.897 1.977 1.891 1.891 0 013.222-1.725 3.797 3.797 0 001.2-.459 1.9 1.9 0 01-.831 1.047 3.799 3.799 0 001.086-.299 3.834 3.834 0 01-.943.979z"/></symbol><symbol id="twitter" viewBox="0 0 20 20"><path d="M17.316 6.246c.008.162.011.326.011.488 0 4.99-3.797 10.742-10.74 10.742-2.133 0-4.116-.625-5.787-1.697a7.577 7.577 0 005.588-1.562 3.779 3.779 0 01-3.526-2.621 3.858 3.858 0 001.705-.065 3.779 3.779 0 01-3.028-3.703v-.047a3.766 3.766 0 001.71.473 3.775 3.775 0 01-1.168-5.041 10.716 10.716 0 007.781 3.945 3.813 3.813 0 01-.097-.861 3.773 3.773 0 013.774-3.773 3.77 3.77 0 012.756 1.191 7.602 7.602 0 002.397-.916 3.789 3.789 0 01-1.66 2.088 7.55 7.55 0 002.168-.594 7.623 7.623 0 01-1.884 1.953z"/></symbol><symbol id="youtube-with-circle" viewBox="0 0 20 20"><path d="M11.603 9.833L9.357 8.785C9.161 8.694 9 8.796 9 9.013v1.974c0 .217.161.319.357.228l2.245-1.048c.197-.092.197-.242.001-.334zM10 .4C4.698.4.4 4.698.4 10s4.298 9.6 9.6 9.6 9.6-4.298 9.6-9.6S15.302.4 10 .4zm0 13.5c-4.914 0-5-.443-5-3.9s.086-3.9 5-3.9 5 .443 5 3.9-.086 3.9-5 3.9z"/></symbol><symbol id="youtube" viewBox="0 0 20 20"><path d="M10 2.3C.172 2.3 0 3.174 0 10s.172 7.7 10 7.7 10-.874 10-7.7-.172-7.7-10-7.7zm3.205 8.034l-4.49 2.096c-.393.182-.715-.022-.715-.456V8.026c0-.433.322-.638.715-.456l4.49 2.096c.393.184.393.484 0 .668z"/></symbol></defs></svg>